<svg id="Layer_1" data-name="Layer 1" xmlns="http://www.w3.org/2000/svg" viewBox="0 0 1769 863"><defs><style>.cls-1{fill:#4054b2;}.cls-2{fill:#e52f30;}.cls-3{fill:#b72c2d;}.cls-4{fill:#fff;}</style></defs><polygon class="cls-2" points="417.89 64.74 417.89 798.26 111.63 632.07 61.32 188.27 417.89 64.74"/><polygon class="cls-3" points="417.89 64.74 417.89 798.26 724.17 632.07 774.47 188.27 417.89 64.74"/><path class="cls-4" d="M351.6,565.33H572.76V630.7H237.28L463.52,235.22H274.29V169.86H577.84Z"/><path class="cls-4" d="M793.93,446.82q0-69.74,51.13-119.79Q896,277,967.41,277q70.59,0,121.07,50.48,50.7,50.49,50.69,121.29,0,71.21-50.9,120.85-51.13,49.85-123.43,49.83-64,0-114.86-44.27Q793.93,526.18,793.93,446.82Zm50.27.63q0,54.78,36.79,90.06,36.59,35.29,84.49,35.3,52,0,87.71-35.93,35.71-36.37,35.72-88.57,0-52.81-35.3-88.55-35.08-35.94-86.84-35.94-51.56,0-87.06,35.94Q844.21,395.27,844.2,447.45Z"/><path class="cls-4" d="M1228.69,283.18V566.6h97.11v46.84h-147V283.18Z"/><polygon class="cls-4" points="1517.03 262.43 1353.61 613.44 1407.3 613.44 1444.09 533.24 1464.83 486.39 1466.38 483.02 1466.38 483.02 1516.17 374.09 1565.16 486.39 1493.49 486.39 1472.61 533.24 1585.47 533.24 1620.14 613.44 1674.68 613.44 1517.03 262.43"/></svg>